<svg width="115" height="21" viewBox="0 0 115 21" fill="none" xmlns="http://www.w3.org/2000/svg">
<g clip-path="url(#clip0_1_183)">
<path d="M10.3405 14.5716L15.5549 17.7188L14.1712 11.7872L18.778 7.79625L12.7115 7.28156L10.3405 1.6875L7.96959 7.28156L1.90303 7.79625L6.50991 11.7872L5.12616 17.7188L10.3405 14.5716Z" fill="#EF7C6A"/>
</g>
<g clip-path="url(#clip1_1_183)">
<path d="M33.9655 14.5716L39.1799 17.7188L37.7962 11.7872L42.403 7.79625L36.3365 7.28156L33.9655 1.6875L31.5946 7.28156L25.528 7.79625L30.1349 11.7872L28.7512 17.7188L33.9655 14.5716Z" fill="#EF7C6A"/>
</g>
<g clip-path="url(#clip2_1_183)">
<path d="M57.5905 14.5716L62.8049 17.7188L61.4212 11.7872L66.028 7.79625L59.9615 7.28156L57.5905 1.6875L55.2196 7.28156L49.153 7.79625L53.7599 11.7872L52.3762 17.7188L57.5905 14.5716Z" fill="#EF7C6A"/>
</g>
<g clip-path="url(#clip3_1_183)">
<path d="M81.2155 14.5716L86.4299 17.7188L85.0462 11.7872L89.653 7.79625L83.5865 7.28156L81.2155 1.6875L78.8446 7.28156L72.778 7.79625L77.3849 11.7872L76.0012 17.7188L81.2155 14.5716Z" fill="#EF7C6A"/>
</g>
<g clip-path="url(#clip4_1_183)">
<path d="M113.278 7.79625L107.211 7.27312L104.841 1.6875L102.47 7.28156L96.403 7.79625L101.01 11.7872L99.6262 17.7188L104.841 14.5716L110.055 17.7188L108.68 11.7872L113.278 7.79625ZM104.841 12.9937L101.668 14.9091L102.512 11.2978L99.7105 8.86781L103.406 8.54719L104.841 5.14687L106.283 8.55563L109.979 8.87625L107.178 11.3062L108.021 14.9175L104.841 12.9937Z" fill="#EF7C6A"/>
</g>
<defs>
<clipPath id="clip0_1_183">
<rect width="20.25" height="20.25" fill="white" transform="translate(0.21553)"/>
</clipPath>
<clipPath id="clip1_1_183">
<rect width="20.25" height="20.25" fill="white" transform="translate(23.8405)"/>
</clipPath>
<clipPath id="clip2_1_183">
<rect width="20.25" height="20.25" fill="white" transform="translate(47.4655)"/>
</clipPath>
<clipPath id="clip3_1_183">
<rect width="20.25" height="20.25" fill="white" transform="translate(71.0905)"/>
</clipPath>
<clipPath id="clip4_1_183">
<rect width="20.25" height="20.25" fill="white" transform="translate(94.7155)"/>
</clipPath>
</defs>
</svg>
