<svg width="116" height="21" viewBox="0 0 116 21" fill="none" xmlns="http://www.w3.org/2000/svg">
<g clip-path="url(#clip0_1_203)">
<path d="M10.5173 14.5716L15.7316 17.7188L14.3479 11.7872L18.9548 7.79625L12.8882 7.28156L10.5173 1.6875L8.14634 7.28156L2.07977 7.79625L6.68665 11.7872L5.3029 17.7188L10.5173 14.5716Z" fill="#F855CA"/>
</g>
<g clip-path="url(#clip1_1_203)">
<path d="M34.1423 14.5716L39.3566 17.7188L37.9729 11.7872L42.5798 7.79625L36.5132 7.28156L34.1423 1.6875L31.7713 7.28156L25.7048 7.79625L30.3116 11.7872L28.9279 17.7188L34.1423 14.5716Z" fill="#F855CA"/>
</g>
<g clip-path="url(#clip2_1_203)">
<path d="M57.7673 14.5716L62.9816 17.7188L61.5979 11.7872L66.2048 7.79625L60.1382 7.28156L57.7673 1.6875L55.3963 7.28156L49.3298 7.79625L53.9366 11.7872L52.5529 17.7188L57.7673 14.5716Z" fill="#F855CA"/>
</g>
<g clip-path="url(#clip3_1_203)">
<path d="M81.3923 14.5716L86.6066 17.7188L85.2229 11.7872L89.8298 7.79625L83.7632 7.28156L81.3923 1.6875L79.0213 7.28156L72.9548 7.79625L77.5616 11.7872L76.1779 17.7188L81.3923 14.5716Z" fill="#F855CA"/>
</g>
<g clip-path="url(#clip4_1_203)">
<path d="M113.455 7.79625L107.388 7.27312L105.017 1.6875L102.646 7.28156L96.5798 7.79625L101.187 11.7872L99.8029 17.7188L105.017 14.5716L110.232 17.7188L108.856 11.7872L113.455 7.79625ZM105.017 12.9937L101.845 14.9091L102.689 11.2978L99.8873 8.86781L103.583 8.54719L105.017 5.14687L106.46 8.55563L110.156 8.87625L107.354 11.3062L108.198 14.9175L105.017 12.9937Z" fill="#F855CA"/>
</g>
<defs>
<clipPath id="clip0_1_203">
<rect width="20.25" height="20.25" fill="white" transform="translate(0.392273)"/>
</clipPath>
<clipPath id="clip1_1_203">
<rect width="20.25" height="20.25" fill="white" transform="translate(24.0173)"/>
</clipPath>
<clipPath id="clip2_1_203">
<rect width="20.25" height="20.25" fill="white" transform="translate(47.6423)"/>
</clipPath>
<clipPath id="clip3_1_203">
<rect width="20.25" height="20.25" fill="white" transform="translate(71.2673)"/>
</clipPath>
<clipPath id="clip4_1_203">
<rect width="20.25" height="20.25" fill="white" transform="translate(94.8923)"/>
</clipPath>
</defs>
</svg>
