<svg width="115" height="21" viewBox="0 0 115 21" fill="none" xmlns="http://www.w3.org/2000/svg">
<g clip-path="url(#clip0_1_163)">
<path d="M10.1638 14.5716L15.3781 17.7188L13.9944 11.7872L18.6013 7.79625L12.5347 7.28156L10.1638 1.6875L7.79282 7.28156L1.72626 7.79625L6.33313 11.7872L4.94938 17.7188L10.1638 14.5716Z" fill="#FFB632"/>
</g>
<g clip-path="url(#clip1_1_163)">
<path d="M33.7888 14.5716L39.0031 17.7188L37.6194 11.7872L42.2263 7.79625L36.1597 7.28156L33.7888 1.6875L31.4178 7.28156L25.3513 7.79625L29.9581 11.7872L28.5744 17.7188L33.7888 14.5716Z" fill="#FFB632"/>
</g>
<g clip-path="url(#clip2_1_163)">
<path d="M57.4138 14.5716L62.6281 17.7188L61.2444 11.7872L65.8513 7.79625L59.7847 7.28156L57.4138 1.6875L55.0428 7.28156L48.9763 7.79625L53.5831 11.7872L52.1994 17.7188L57.4138 14.5716Z" fill="#FFB632"/>
</g>
<g clip-path="url(#clip3_1_163)">
<path d="M81.0388 14.5716L86.2531 17.7188L84.8694 11.7872L89.4763 7.79625L83.4097 7.28156L81.0388 1.6875L78.6678 7.28156L72.6013 7.79625L77.2081 11.7872L75.8244 17.7188L81.0388 14.5716Z" fill="#FFB632"/>
</g>
<g clip-path="url(#clip4_1_163)">
<path d="M113.101 7.79625L107.035 7.27312L104.664 1.6875L102.293 7.28156L96.2263 7.79625L100.833 11.7872L99.4494 17.7188L104.664 14.5716L109.878 17.7188L108.503 11.7872L113.101 7.79625ZM104.664 12.9937L101.491 14.9091L102.335 11.2978L99.5338 8.86781L103.229 8.54719L104.664 5.14687L106.107 8.55563L109.802 8.87625L107.001 11.3062L107.845 14.9175L104.664 12.9937Z" fill="#FFB632"/>
</g>
<defs>
<clipPath id="clip0_1_163">
<rect width="20.25" height="20.25" fill="white" transform="translate(0.0387573)"/>
</clipPath>
<clipPath id="clip1_1_163">
<rect width="20.25" height="20.25" fill="white" transform="translate(23.6638)"/>
</clipPath>
<clipPath id="clip2_1_163">
<rect width="20.25" height="20.25" fill="white" transform="translate(47.2888)"/>
</clipPath>
<clipPath id="clip3_1_163">
<rect width="20.25" height="20.25" fill="white" transform="translate(70.9138)"/>
</clipPath>
<clipPath id="clip4_1_163">
<rect width="20.25" height="20.25" fill="white" transform="translate(94.5388)"/>
</clipPath>
</defs>
</svg>
